<svg xmlns="http://www.w3.org/2000/svg" xmlns:xlink="http://www.w3.org/1999/xlink" width="600" zoomAndPan="magnify" viewBox="0 0 450 299.999988" height="400" preserveAspectRatio="xMidYMid meet" version="1.0"><path fill="#56c035" d="M 375 150 C 375 232.84375 307.84375 300 225 300 C 142.15625 300 75 232.84375 75 150 C 75 67.15625 142.15625 0 225 0 C 307.84375 0 375 67.15625 375 150 " fill-opacity="1" fill-rule="nonzero"/><path fill="#d4d3d2" d="M 374.96875 152.992188 C 374.96875 152.984375 374.96875 152.992188 374.96875 152.984375 L 374.96875 152.992188 M 374.972656 152.882812 L 374.972656 152.878906 L 374.972656 152.882812 M 374.980469 152.566406 C 374.980469 152.5625 374.980469 152.5625 374.980469 152.558594 L 374.980469 152.566406 M 374.980469 152.460938 L 374.980469 152.449219 L 374.980469 152.460938 M 374.980469 152.347656 L 374.980469 152.347656 M 374.984375 152.140625 L 374.984375 152.132812 L 374.984375 152.140625 M 374.984375 152.035156 L 374.984375 152.019531 L 374.984375 152.035156 M 374.988281 151.925781 C 374.988281 151.921875 374.988281 151.921875 374.988281 151.914062 L 374.988281 151.925781 M 374.992188 151.714844 L 374.992188 151.703125 C 374.992188 151.710938 374.992188 151.714844 374.992188 151.714844 M 374.992188 151.609375 C 374.992188 151.605469 374.992188 151.597656 374.992188 151.597656 C 374.992188 151.605469 374.992188 151.601562 374.992188 151.609375 M 374.992188 151.503906 C 374.992188 151.496094 374.992188 151.492188 374.992188 151.488281 C 374.992188 151.492188 374.992188 151.496094 374.992188 151.503906 M 374.992188 151.390625 C 374.992188 151.386719 374.992188 151.386719 374.992188 151.382812 L 374.992188 151.390625 M 374.992188 151.292969 C 374.992188 151.285156 374.992188 151.28125 374.992188 151.277344 C 374.992188 151.28125 374.992188 151.285156 374.992188 151.292969 M 374.992188 151.183594 C 374.992188 151.175781 374.992188 151.175781 374.992188 151.167969 C 374.992188 151.175781 374.992188 151.175781 374.992188 151.183594 M 374.996094 151.074219 C 374.996094 151.070312 374.996094 151.066406 374.996094 151.058594 C 374.996094 151.070312 374.996094 151.066406 374.996094 151.074219 M 374.996094 150.964844 C 374.996094 150.957031 374.996094 150.964844 374.996094 150.957031 L 374.996094 150.964844 M 374.996094 150.863281 C 374.996094 150.859375 374.996094 150.859375 374.996094 150.851562 C 374.996094 150.855469 374.996094 150.859375 374.996094 150.863281 M 374.996094 150.757812 C 374.996094 150.753906 374.996094 150.746094 374.996094 150.742188 C 374.996094 150.746094 374.996094 150.753906 374.996094 150.757812 M 374.996094 150.648438 C 374.996094 150.644531 374.996094 150.636719 374.996094 150.632812 C 374.996094 150.640625 374.996094 150.640625 374.996094 150.648438 M 375 150.539062 L 375 150.527344 C 375 150.53125 375 150.53125 375 150.539062 M 375 150.429688 L 375 150.425781 L 375 150.429688 M 375 150.332031 C 375 150.324219 375 150.320312 375 150.316406 C 375 150.320312 375 150.324219 375 150.332031 M 375 150.222656 C 375 150.214844 375 150.210938 375 150.203125 C 375 150.214844 375 150.214844 375 150.222656 M 375 150.109375 L 375 150.097656 C 375 150.105469 375 150.105469 375 150.109375 " fill-opacity="1" fill-rule="nonzero"/><path fill="#41b93c" d="M 253.734375 297.238281 L 191.566406 235.070312 L 329.945312 96.683594 L 374.753906 141.492188 C 374.910156 144.308594 375 147.144531 375 150 C 375 150.03125 375 150.066406 375 150.097656 L 375 150.109375 C 375 150.144531 375 150.171875 375 150.203125 C 375 150.210938 375 150.214844 375 150.222656 C 375 150.253906 375 150.285156 375 150.316406 C 375 150.320312 375 150.324219 375 150.332031 C 375 150.359375 375 150.394531 375 150.425781 L 375 150.429688 C 375 150.460938 375 150.496094 375 150.527344 L 375 150.539062 C 375 150.566406 374.996094 150.601562 374.996094 150.632812 C 374.996094 150.636719 374.996094 150.644531 374.996094 150.648438 C 374.996094 150.679688 374.996094 150.710938 374.996094 150.742188 C 374.996094 150.746094 374.996094 150.753906 374.996094 150.757812 C 374.996094 150.789062 374.996094 150.820312 374.996094 150.851562 C 374.996094 150.859375 374.996094 150.859375 374.996094 150.863281 C 374.996094 150.894531 374.996094 150.925781 374.996094 150.957031 C 374.996094 150.964844 374.996094 150.957031 374.996094 150.964844 C 374.996094 150.992188 374.996094 151.027344 374.996094 151.058594 C 374.996094 151.066406 374.996094 151.070312 374.996094 151.074219 C 374.996094 151.105469 374.992188 151.140625 374.992188 151.167969 C 374.992188 151.175781 374.992188 151.175781 374.992188 151.183594 C 374.992188 151.210938 374.992188 151.246094 374.992188 151.277344 C 374.992188 151.28125 374.992188 151.285156 374.992188 151.292969 C 374.992188 151.320312 374.992188 151.351562 374.992188 151.382812 C 374.992188 151.386719 374.992188 151.386719 374.992188 151.390625 C 374.992188 151.421875 374.992188 151.457031 374.992188 151.488281 C 374.992188 151.492188 374.992188 151.496094 374.992188 151.503906 C 374.992188 151.53125 374.992188 151.5625 374.992188 151.597656 C 374.992188 151.597656 374.992188 151.605469 374.992188 151.609375 C 374.992188 151.644531 374.992188 151.671875 374.992188 151.703125 L 374.992188 151.714844 C 374.992188 151.75 374.988281 151.785156 374.988281 151.816406 C 374.988281 151.851562 374.988281 151.878906 374.988281 151.914062 C 374.988281 151.921875 374.988281 151.921875 374.988281 151.925781 C 374.988281 151.960938 374.988281 151.984375 374.984375 152.019531 L 374.984375 152.035156 C 374.984375 152.070312 374.984375 152.097656 374.984375 152.132812 L 374.984375 152.140625 C 374.984375 152.210938 374.980469 152.273438 374.980469 152.347656 C 374.980469 152.386719 374.980469 152.414062 374.980469 152.449219 L 374.980469 152.460938 C 374.980469 152.496094 374.980469 152.523438 374.980469 152.558594 C 374.980469 152.5625 374.980469 152.5625 374.980469 152.566406 C 374.976562 152.675781 374.976562 152.773438 374.972656 152.878906 L 374.972656 152.882812 C 374.972656 152.917969 374.96875 152.949219 374.96875 152.984375 C 374.96875 152.992188 374.96875 152.984375 374.96875 152.992188 C 374.96875 153.097656 374.964844 153.199219 374.964844 153.308594 C 374.960938 153.34375 374.960938 153.378906 374.960938 153.414062 C 373.363281 224.902344 321.75 284.042969 253.734375 297.238281 " fill-opacity="1" fill-rule="nonzero"/><path fill="#feffff" d="M 120.050781 164.585938 L 153.097656 131.539062 L 192.339844 170.78125 L 298.191406 64.929688 L 329.945312 96.683594 L 191.566406 235.070312 L 120.050781 164.585938 " fill-opacity="1" fill-rule="nonzero"/></svg>